<mxfile host="app.diagrams.net" agent="Mozilla/5.0 (Windows NT 10.0; Win64; x64) AppleWebKit/537.36 (KHTML, like Gecko) Chrome/131.0.0.0 Safari/537.36 Edg/131.0.0.0" version="24.9.3">
  <diagram id="C5RBs43oDa-KdzZeNtuy" name="Page-1">
    <mxGraphModel dx="2069" dy="861" grid="1" gridSize="10" guides="1" tooltips="1" connect="1" arrows="1" fold="1" page="1" pageScale="1" pageWidth="827" pageHeight="1169" math="0" shadow="0">
      <root>
        <mxCell id="WIyWlLk6GJQsqaUBKTNV-0" />
        <mxCell id="WIyWlLk6GJQsqaUBKTNV-1" parent="WIyWlLk6GJQsqaUBKTNV-0" />
        <mxCell id="QLwLy1oBur0K0T82ks5M-24" value="Виклик функції calculateDohid" style="whiteSpace=wrap;strokeWidth=2;" vertex="1" parent="WIyWlLk6GJQsqaUBKTNV-1">
          <mxGeometry x="43" y="234" width="173" height="66" as="geometry" />
        </mxCell>
        <mxCell id="QLwLy1oBur0K0T82ks5M-25" value="Обчислити дохід" style="whiteSpace=wrap;strokeWidth=2;" vertex="1" parent="WIyWlLk6GJQsqaUBKTNV-1">
          <mxGeometry x="38" y="350" width="185" height="48" as="geometry" />
        </mxCell>
        <mxCell id="QLwLy1oBur0K0T82ks5M-26" value="Обчислити суму" style="whiteSpace=wrap;strokeWidth=2;" vertex="1" parent="WIyWlLk6GJQsqaUBKTNV-1">
          <mxGeometry x="40" y="471" width="180" height="48" as="geometry" />
        </mxCell>
        <mxCell id="QLwLy1oBur0K0T82ks5M-28" value="Повторити розрахунки?" style="rhombus;strokeWidth=2;whiteSpace=wrap;" vertex="1" parent="WIyWlLk6GJQsqaUBKTNV-1">
          <mxGeometry x="92" y="650" width="198" height="132" as="geometry" />
        </mxCell>
        <mxCell id="QLwLy1oBur0K0T82ks5M-31" value="" style="curved=1;startArrow=none;endArrow=block;exitX=0.25;exitY=1;entryX=0.5;entryY=0.01;rounded=0;exitDx=0;exitDy=0;" edge="1" parent="WIyWlLk6GJQsqaUBKTNV-1" source="QLwLy1oBur0K0T82ks5M-39" target="QLwLy1oBur0K0T82ks5M-24">
          <mxGeometry relative="1" as="geometry">
            <Array as="points">
              <mxPoint x="130" y="209" />
            </Array>
            <mxPoint x="162.33333333333326" y="184" as="sourcePoint" />
          </mxGeometry>
        </mxCell>
        <mxCell id="QLwLy1oBur0K0T82ks5M-32" value="" style="curved=1;startArrow=none;endArrow=block;exitX=0.5;exitY=1.01;entryX=0.5;entryY=0.01;rounded=0;" edge="1" parent="WIyWlLk6GJQsqaUBKTNV-1" source="QLwLy1oBur0K0T82ks5M-24" target="QLwLy1oBur0K0T82ks5M-25">
          <mxGeometry relative="1" as="geometry">
            <Array as="points" />
          </mxGeometry>
        </mxCell>
        <mxCell id="QLwLy1oBur0K0T82ks5M-33" value="" style="curved=1;startArrow=none;endArrow=block;exitX=0.5;exitY=1.02;entryX=0.5;entryY=0;rounded=0;" edge="1" parent="WIyWlLk6GJQsqaUBKTNV-1" source="QLwLy1oBur0K0T82ks5M-25" target="QLwLy1oBur0K0T82ks5M-26">
          <mxGeometry relative="1" as="geometry">
            <Array as="points" />
          </mxGeometry>
        </mxCell>
        <mxCell id="QLwLy1oBur0K0T82ks5M-34" value="" style="curved=1;startArrow=none;endArrow=block;exitX=0.5;exitY=1.01;entryX=0.5;entryY=-0.01;rounded=0;" edge="1" parent="WIyWlLk6GJQsqaUBKTNV-1" source="QLwLy1oBur0K0T82ks5M-26">
          <mxGeometry relative="1" as="geometry">
            <Array as="points" />
            <mxPoint x="130" y="570" as="targetPoint" />
          </mxGeometry>
        </mxCell>
        <mxCell id="QLwLy1oBur0K0T82ks5M-35" value="" style="curved=1;startArrow=none;endArrow=block;exitX=0.5;exitY=1;entryX=0.23;entryY=0;rounded=0;" edge="1" parent="WIyWlLk6GJQsqaUBKTNV-1" target="QLwLy1oBur0K0T82ks5M-28">
          <mxGeometry relative="1" as="geometry">
            <Array as="points">
              <mxPoint x="130" y="643" />
            </Array>
            <mxPoint x="130" y="618" as="sourcePoint" />
          </mxGeometry>
        </mxCell>
        <mxCell id="QLwLy1oBur0K0T82ks5M-36" value="Так" style="curved=1;startArrow=none;endArrow=block;exitX=0.77;exitY=0;entryX=0.75;entryY=1;rounded=0;entryDx=0;entryDy=0;" edge="1" parent="WIyWlLk6GJQsqaUBKTNV-1" source="QLwLy1oBur0K0T82ks5M-28" target="QLwLy1oBur0K0T82ks5M-39">
          <mxGeometry relative="1" as="geometry">
            <Array as="points">
              <mxPoint x="275" y="643" />
              <mxPoint x="275" y="209" />
            </Array>
            <mxPoint x="241.66666666666674" y="184" as="targetPoint" />
          </mxGeometry>
        </mxCell>
        <mxCell id="QLwLy1oBur0K0T82ks5M-37" value="Ні" style="curved=1;startArrow=none;endArrow=block;exitX=0.5;exitY=1;entryX=0.5;entryY=-0.01;rounded=0;" edge="1" parent="WIyWlLk6GJQsqaUBKTNV-1" source="QLwLy1oBur0K0T82ks5M-28">
          <mxGeometry relative="1" as="geometry">
            <Array as="points" />
            <mxPoint x="191" y="849.9999999999998" as="targetPoint" />
          </mxGeometry>
        </mxCell>
        <mxCell id="QLwLy1oBur0K0T82ks5M-40" value="" style="edgeStyle=orthogonalEdgeStyle;rounded=0;orthogonalLoop=1;jettySize=auto;html=1;" edge="1" parent="WIyWlLk6GJQsqaUBKTNV-1" source="QLwLy1oBur0K0T82ks5M-38" target="QLwLy1oBur0K0T82ks5M-39">
          <mxGeometry relative="1" as="geometry" />
        </mxCell>
        <mxCell id="QLwLy1oBur0K0T82ks5M-38" value="Start" style="ellipse;whiteSpace=wrap;html=1;" vertex="1" parent="WIyWlLk6GJQsqaUBKTNV-1">
          <mxGeometry x="154.5" y="20" width="96" height="60" as="geometry" />
        </mxCell>
        <mxCell id="QLwLy1oBur0K0T82ks5M-39" value="Ввести: внесок, термін, ставка" style="shape=parallelogram;perimeter=parallelogramPerimeter;whiteSpace=wrap;html=1;fixedSize=1;" vertex="1" parent="WIyWlLk6GJQsqaUBKTNV-1">
          <mxGeometry x="142.5" y="120" width="120" height="60" as="geometry" />
        </mxCell>
        <mxCell id="QLwLy1oBur0K0T82ks5M-41" value="End" style="ellipse;whiteSpace=wrap;html=1;" vertex="1" parent="WIyWlLk6GJQsqaUBKTNV-1">
          <mxGeometry x="151" y="850" width="80" height="60" as="geometry" />
        </mxCell>
        <mxCell id="QLwLy1oBur0K0T82ks5M-42" value="Вивести: дохід і суму" style="shape=parallelogram;perimeter=parallelogramPerimeter;whiteSpace=wrap;html=1;fixedSize=1;" vertex="1" parent="WIyWlLk6GJQsqaUBKTNV-1">
          <mxGeometry x="38" y="570" width="170" height="50" as="geometry" />
        </mxCell>
      </root>
    </mxGraphModel>
  </diagram>
</mxfile>
